<svg width="195" height="42" viewBox="0 0 195 42" fill="none" xmlns="http://www.w3.org/2000/svg">
<path d="M188.869 31.5598C188.869 32.1748 188.659 32.7088 188.237 33.162C187.815 33.5827 187.296 33.7931 186.68 33.7931H185.318C184.702 33.7931 184.183 33.5827 183.761 33.162C183.339 32.7088 183.128 32.1748 183.128 31.5598V15.101C183.128 14.9068 183.047 14.745 182.885 14.6155C182.755 14.486 182.609 14.4213 182.447 14.4213H177.728C177.566 14.4213 177.404 14.486 177.242 14.6155C177.112 14.745 177.047 14.9068 177.047 15.101V31.5598C177.047 32.1748 176.836 32.7088 176.414 33.162C175.993 33.5827 175.474 33.7931 174.858 33.7931H173.495C172.879 33.7931 172.344 33.5827 171.89 33.162C171.468 32.7088 171.257 32.1748 171.257 31.5598V3.206C171.257 2.55865 171.468 2.0246 171.89 1.60382C172.344 1.18304 172.879 0.972656 173.495 0.972656H174.858C175.474 0.972656 175.993 1.18304 176.414 1.60382C176.836 2.0246 177.047 2.55865 177.047 3.206V8.0611C177.047 8.22294 177.112 8.36859 177.242 8.49806C177.404 8.59516 177.566 8.64371 177.728 8.64371H183.469C184.474 8.64371 185.383 8.88647 186.194 9.37198C187.004 9.85749 187.653 10.521 188.14 11.3626C188.626 12.1718 188.869 13.078 188.869 14.0814V31.5598Z" fill="#0DBBFC"/>
<path d="M167.3 28.3562C167.3 29.8775 166.764 31.1722 165.694 32.2403C164.656 33.2761 163.391 33.7939 161.899 33.7939H155.137C153.645 33.7939 152.363 33.2761 151.293 32.2403C150.223 31.1722 149.688 29.8775 149.688 28.3562V14.0822C149.688 13.0789 149.931 12.1726 150.417 11.3634C150.936 10.5218 151.601 9.85831 152.412 9.3728C153.223 8.88729 154.131 8.64453 155.137 8.64453H161.899C162.905 8.64453 163.813 8.88729 164.624 9.3728C165.435 9.85831 166.083 10.5218 166.57 11.3634C167.056 12.1726 167.3 13.0789 167.3 14.0822V16.6069C167.3 17.2219 167.089 17.7559 166.667 18.2091C166.245 18.6299 165.726 18.8402 165.11 18.8402H163.748C163.132 18.8402 162.613 18.6299 162.191 18.2091C161.769 17.7559 161.559 17.2219 161.559 16.6069V15.1018C161.559 14.9076 161.478 14.7458 161.315 14.6163C161.186 14.4868 161.04 14.4221 160.877 14.4221H156.158C155.996 14.4221 155.834 14.4868 155.672 14.6163C155.542 14.7458 155.477 14.9076 155.477 15.1018V27.4338C155.477 27.5956 155.542 27.7413 155.672 27.8707C155.834 28.0002 155.996 28.0649 156.158 28.0649H160.877C161.04 28.0649 161.186 28.0002 161.315 27.8707C161.478 27.7413 161.559 27.5956 161.559 27.4338V25.9287C161.559 25.3137 161.769 24.7958 162.191 24.3751C162.613 23.9219 163.132 23.6953 163.748 23.6953H165.11C165.726 23.6953 166.245 23.9219 166.667 24.3751C167.089 24.7958 167.3 25.3137 167.3 25.9287V28.3562Z" fill="#0DBBFC"/>
<path d="M145.729 19.3743C145.729 20.3453 145.485 21.2516 144.999 22.0932C144.512 22.9023 143.864 23.5659 143.053 24.0837C142.242 24.5693 141.334 24.812 140.328 24.812H134.587C134.425 24.812 134.263 24.8767 134.101 25.0062C133.971 25.1033 133.906 25.2328 133.906 25.3946V27.4338C133.906 27.5956 133.971 27.7413 134.101 27.8707C134.263 28.0002 134.425 28.0649 134.587 28.0649H140.328C140.945 28.0649 141.464 28.2753 141.885 28.6961C142.339 29.1169 142.566 29.6509 142.566 30.2983V31.5606C142.566 32.1756 142.339 32.7096 141.885 33.1628C141.464 33.5836 140.945 33.7939 140.328 33.7939H133.566C132.074 33.7939 130.793 33.2761 129.722 32.2403C128.652 31.1722 128.117 29.8775 128.117 28.3562V14.0822C128.117 13.0789 128.36 12.1726 128.846 11.3634C129.365 10.5542 130.03 9.90686 130.841 9.42135C131.652 8.90347 132.56 8.64453 133.566 8.64453H140.328C141.334 8.64453 142.242 8.90347 143.053 9.42135C143.864 9.90686 144.512 10.5542 144.999 11.3634C145.485 12.1726 145.729 13.0789 145.729 14.0822V19.3743ZM139.988 18.4033V15.1018C139.988 14.9076 139.907 14.7458 139.745 14.6163C139.615 14.4868 139.469 14.4221 139.307 14.4221H134.587C134.425 14.4221 134.263 14.4868 134.101 14.6163C133.971 14.7458 133.906 14.9076 133.906 15.1018V18.4033C133.906 18.5327 133.971 18.6622 134.101 18.7917C134.263 18.9212 134.425 18.9859 134.587 18.9859H139.307C139.469 18.9859 139.615 18.9212 139.745 18.7917C139.907 18.6622 139.988 18.5327 139.988 18.4033Z" fill="#0DBBFC"/>
<path d="M124.179 31.5598C124.179 32.1748 123.969 32.7088 123.547 33.162C123.125 33.5827 122.606 33.7931 121.99 33.7931H115.179C113.687 33.7931 112.406 33.2752 111.335 32.2395C110.297 31.1714 109.778 29.8767 109.778 28.3554V3.206C109.778 2.55865 109.989 2.0246 110.411 1.60382C110.832 1.18304 111.351 0.972656 111.968 0.972656H113.33C113.946 0.972656 114.465 1.18304 114.887 1.60382C115.341 2.0246 115.568 2.55865 115.568 3.206V8.0611C115.568 8.44951 115.779 8.64371 116.2 8.64371H121.99C122.606 8.64371 123.125 8.87029 123.547 9.32343C123.969 9.7442 124.179 10.2783 124.179 10.9256V12.2365C124.179 12.7867 123.969 13.3046 123.547 13.7901C123.06 14.2109 122.541 14.4213 121.99 14.4213H116.2C115.779 14.4213 115.568 14.6479 115.568 15.101V27.4329C115.568 27.8537 115.779 28.0641 116.2 28.0641H121.99C122.606 28.0641 123.125 28.2745 123.547 28.6953C123.969 29.116 124.179 29.6501 124.179 30.2975V31.5598Z" fill="#0DBBFC"/>
<path d="M105.72 30.1511C105.72 31.1545 105.347 32.0122 104.601 32.7243C103.887 33.4364 103.027 33.7924 102.022 33.7924C101.049 33.7924 100.189 33.4364 99.4434 32.7243C98.7298 32.0122 98.373 31.1545 98.373 30.1511C98.373 29.1477 98.7298 28.29 99.4434 27.5779C100.189 26.8658 101.049 26.5098 102.022 26.5098C103.027 26.5098 103.887 26.8658 104.601 27.5779C105.347 28.29 105.72 29.1477 105.72 30.1511Z" fill="#0DBBFC"/>
<path d="M94.4636 28.3562C94.4636 29.8775 93.9284 31.1722 92.8581 32.2403C91.8202 33.2761 90.5552 33.7939 89.0632 33.7939H82.3006C80.8086 33.7939 79.5274 33.2761 78.4571 32.2403C77.3867 31.1722 76.8516 29.8775 76.8516 28.3562V14.0822C76.8516 13.0789 77.0948 12.1726 77.5813 11.3634C78.1003 10.5218 78.7652 9.85831 79.5761 9.3728C80.3869 8.88729 81.2951 8.64453 82.3006 8.64453H89.0632C90.0687 8.64453 90.9769 8.88729 91.7878 9.3728C92.5986 9.85831 93.2473 10.5218 93.7338 11.3634C94.2203 12.1726 94.4636 13.0789 94.4636 14.0822V28.3562ZM88.7227 27.4338V15.1018C88.7227 14.9076 88.6416 14.7458 88.4794 14.6163C88.3497 14.4868 88.2037 14.4221 88.0415 14.4221H83.3223C83.1601 14.4221 82.9979 14.4868 82.8358 14.6163C82.706 14.7458 82.6412 14.9076 82.6412 15.1018V27.4338C82.6412 27.5956 82.706 27.7413 82.8358 27.8707C82.9979 28.0002 83.1601 28.0649 83.3223 28.0649H88.0415C88.2037 28.0649 88.3497 28.0002 88.4794 27.8707C88.6416 27.7413 88.7227 27.5956 88.7227 27.4338Z" fill="#86C605"/>
<path d="M72.8933 28.3562C72.8933 29.8775 72.3581 31.1722 71.2878 32.2403C70.2499 33.2761 68.9849 33.7939 67.4929 33.7939H61.752C61.5898 33.7939 61.4276 33.8587 61.2655 33.9881C61.1357 34.1176 61.0708 34.2633 61.0708 34.4251V39.3288C61.0708 39.9437 60.86 40.4616 60.4384 40.8824C60.0167 41.3355 59.4978 41.5621 58.8815 41.5621H57.5192C56.903 41.5621 56.3678 41.3355 55.9137 40.8824C55.4921 40.4616 55.2812 39.9437 55.2812 39.3288V14.0822C55.2812 13.0789 55.5245 12.1726 56.011 11.3634C56.53 10.5218 57.1949 9.85831 58.0058 9.3728C58.8166 8.88729 59.7248 8.64453 60.7303 8.64453H67.4929C68.4984 8.64453 69.4066 8.88729 70.2174 9.3728C71.0283 9.85831 71.677 10.5218 72.1635 11.3634C72.65 12.1726 72.8933 13.0789 72.8933 14.0822V28.3562ZM67.1524 27.4338V15.1018C67.1524 14.9076 67.0713 14.7458 66.9091 14.6163C66.7794 14.4868 66.6334 14.4221 66.4712 14.4221H61.752C61.5898 14.4221 61.4276 14.4868 61.2655 14.6163C61.1357 14.7458 61.0708 14.9076 61.0708 15.1018V27.4338C61.0708 27.5956 61.1357 27.7413 61.2655 27.8707C61.4276 28.0002 61.5898 28.0649 61.752 28.0649H66.4712C66.6334 28.0649 66.7794 28.0002 66.9091 27.8707C67.0713 27.7413 67.1524 27.5956 67.1524 27.4338Z" fill="#86C605"/>
<path d="M51.3225 28.3562C51.3225 29.8775 50.7873 31.1722 49.717 32.2403C48.6791 33.2761 47.4141 33.7939 45.9221 33.7939H39.1595C37.6675 33.7939 36.3863 33.2761 35.316 32.2403C34.2456 31.1722 33.7104 29.8775 33.7104 28.3562V26.3656C33.7104 25.7507 33.9213 25.2328 34.3429 24.812C34.797 24.3589 35.3322 24.1323 35.9484 24.1323H37.3107C37.927 24.1323 38.4459 24.3589 38.8676 24.812C39.2892 25.2328 39.5 25.7507 39.5 26.3656V27.4338C39.5 27.8545 39.7271 28.0649 40.1812 28.0649H44.9004C45.0626 28.0649 45.2086 28.0002 45.3383 27.8707C45.5005 27.7413 45.5816 27.5956 45.5816 27.4338V25.6374C45.5816 25.3784 45.4518 25.2004 45.1923 25.1033L38.1378 22.87C36.8404 22.4168 35.7701 21.64 34.9267 20.5395C34.1159 19.439 33.7104 18.1929 33.7104 16.8011V14.0822C33.7104 13.0789 33.9537 12.1726 34.4402 11.3634C34.9592 10.5542 35.6241 9.90686 36.435 9.42135C37.2458 8.90347 38.154 8.64453 39.1595 8.64453H45.9221C46.9276 8.64453 47.8358 8.90347 48.6466 9.42135C49.4575 9.90686 50.1062 10.5542 50.5927 11.3634C51.0792 12.1726 51.3225 13.0789 51.3225 14.0822V16.0243C51.3225 16.6393 51.1117 17.1733 50.69 17.6265C50.2684 18.0472 49.7494 18.2576 49.1332 18.2576H47.7709C47.1546 18.2576 46.6357 18.0472 46.214 17.6265C45.7924 17.1733 45.5816 16.6393 45.5816 16.0243V15.1018C45.5816 14.9076 45.5005 14.7458 45.3383 14.6163C45.2086 14.4868 45.0626 14.4221 44.9004 14.4221H40.1812C39.7271 14.4221 39.5 14.6487 39.5 15.1018V16.8011C39.5 17.1248 39.6298 17.319 39.8893 17.3837L46.9438 19.6171C48.2736 20.0378 49.3278 20.7985 50.1062 21.899C50.9171 22.9994 51.3225 24.2456 51.3225 25.6374V28.3562Z" fill="#86C605"/>
<path d="M29.7971 4.08078C29.7971 5.08416 29.4241 5.95808 28.6781 6.70253C27.9646 7.41461 27.1213 7.77065 26.1482 7.77065C25.1428 7.77065 24.267 7.41461 23.521 6.70253C22.8075 5.95808 22.4507 5.08416 22.4507 4.08078C22.4507 3.10976 22.8075 2.26821 23.521 1.55613C24.267 0.811677 25.1428 0.439453 26.1482 0.439453C27.1213 0.439453 27.9646 0.811677 28.6781 1.55613C29.4241 2.26821 29.7971 3.10976 29.7971 4.08078ZM29.0187 31.5606C29.0187 32.1756 28.7917 32.7097 28.3376 33.1628C27.9159 33.5836 27.397 33.794 26.7807 33.794H25.4671C24.8509 33.794 24.3157 33.5836 23.8616 33.1628C23.4399 32.7097 23.2291 32.1756 23.2291 31.5606V11.412C23.2291 10.797 23.4399 10.2791 23.8616 9.85835C24.3157 9.4052 24.8509 9.17863 25.4671 9.17863H26.7807C27.397 9.17863 27.9159 9.4052 28.3376 9.85835C28.7917 10.2791 29.0187 10.797 29.0187 11.412V31.5606Z" fill="#86C605"/>
<path d="M18.4919 28.3554C18.4919 29.8767 17.9568 31.1714 16.8864 32.2395C15.8485 33.2752 14.5836 33.7931 13.0916 33.7931H6.32892C4.83692 33.7931 3.55575 33.2752 2.4854 32.2395C1.41505 31.1714 0.879883 29.8767 0.879883 28.3554V14.0814C0.879883 13.078 1.12314 12.1718 1.60966 11.3626C2.12862 10.521 2.79353 9.85749 3.6044 9.37198C4.41527 8.88647 5.32344 8.64371 6.32892 8.64371H12.0699C12.5239 8.64371 12.751 8.44951 12.751 8.0611V3.206C12.751 2.55865 12.9618 2.0246 13.3835 1.60382C13.8051 1.18304 14.3241 0.972656 14.9403 0.972656H16.3026C16.9189 0.972656 17.4378 1.18304 17.8595 1.60382C18.2811 2.0246 18.4919 2.55865 18.4919 3.206V28.3554ZM12.751 27.4329V15.101C12.751 14.6479 12.5239 14.4213 12.0699 14.4213H7.35061C7.18844 14.4213 7.02626 14.486 6.86409 14.6155C6.73435 14.745 6.66948 14.9068 6.66948 15.101V27.4329C6.66948 27.5948 6.73435 27.7404 6.86409 27.8699C7.02626 27.9994 7.18844 28.0641 7.35061 28.0641H12.0699C12.5239 28.0641 12.751 27.8537 12.751 27.4329Z" fill="#86C605"/>
<path d="M191.543 8.79883H191.846L192.888 11.3012H192.913L193.956 8.79883H194.258V11.6715H194.012V9.35287H193.989L193.02 11.6715H192.782L191.812 9.35287H191.79V11.6715H191.543V8.79883Z" fill="#0DBBFC"/>
<path d="M188.869 9.03447V8.79883H190.952V9.03447H190.042V11.6715H189.779V9.03447H188.869Z" fill="#0DBBFC"/>
</svg>
